<svg width="42" height="50" viewBox="0 0 42 50" fill="none" xmlns="http://www.w3.org/2000/svg">
<path d="M17.4485 25.1422C18.292 26.4797 20.0714 27.145 21.6024 26.6671C23.1172 26.1883 24.21 24.6329 24.1435 23.0485C24.08 21.4227 22.9276 19.9851 21.4043 19.6302C20.2573 19.3626 18.8831 19.6769 17.879 20.736C16.7809 21.8899 16.5958 23.7841 17.4485 25.1422ZM18.9458 21.75C19.8558 20.7895 20.9432 21.0847 21.1153 21.0748C21.9702 21.2988 22.6363 22.1629 22.6722 23.1058V23.1089C22.712 24.0365 22.0474 24.9824 21.1611 25.2623C20.2741 25.5414 19.1897 25.143 18.695 24.3584C18.1979 23.5669 18.3072 22.4206 18.9458 21.75Z" fill="#EC9A00"/>
<path d="M5.35846 19.4214C5.46108 19.5215 5.59829 19.5783 5.74166 19.58C5.88502 19.5818 6.02354 19.5282 6.12852 19.4306L6.12164 19.4688C6.35793 19.4107 6.5017 19.3266 6.70282 19.2226C6.79458 18.8402 6.97734 18.2682 7.0974 17.8255C7.41476 17.9035 7.72981 17.9914 8.04487 18.0824C7.12952 19.0773 5.82952 23.6571 6.96358 29.0429C8.07011 34.2353 9.92605 36.8506 10.3619 38.9803L10.3543 38.9726C10.729 41.0091 10.0308 41.9443 9.4657 43.5555C9.4657 43.5632 9.45805 43.5708 9.45805 43.5785C9.30395 44.0162 9.2018 44.4705 9.1537 44.932C8.80423 46.0638 9.27452 47.1343 9.99258 47.5626C10.1302 47.6444 10.2694 47.7171 10.4078 47.7882C12.0886 48.8588 21.8837 51.2347 32.4336 48.4458C32.6156 48.3984 32.8626 48.3365 33.1379 48.26C34.2009 47.9671 34.0594 46.8093 32.9582 46.6648C31.3707 46.4568 29.3037 46.5585 27.9677 46.9455C28.3386 46.4178 28.5107 45.7548 28.3868 45.0926C28.3425 44.7791 28.2866 44.5626 28.308 44.048C28.3424 43.268 28.708 42.5622 29.2287 42.2571C30.544 41.5306 33.5279 42.5928 35.6247 41.526C36.6862 40.9861 37.6007 39.7274 37.2994 38.3769C37.2031 37.8929 36.8597 37.5266 36.8039 37.288C36.7122 36.9079 37.3178 36.339 37.434 35.6423C37.5793 34.8195 37.2367 34.1741 37.158 33.5677C37.0211 32.517 36.6709 32.3151 38.1376 31.828C38.461 31.7209 39.4024 31.3745 39.7213 31.2116C40.7811 30.7024 41.1627 29.5637 39.7626 28.0932C38.8281 27.1166 38.5826 26.6372 38.068 25.9726C37.5862 25.3441 37.1259 24.4417 36.914 23.9859C36.5714 23.2404 37.2008 22.1606 37.3522 21.1244C37.4394 20.4905 37.4654 19.8305 37.4501 19.1339C38.6028 18.2935 39.7344 17.4245 40.8439 16.5278C40.9049 16.4787 40.9552 16.4176 40.9918 16.3483C41.0283 16.279 41.0503 16.203 41.0563 16.1249C41.0623 16.0468 41.0522 15.9683 41.0268 15.8942C41.0013 15.8202 40.9609 15.7521 40.9081 15.6942C39.9568 14.6489 38.8289 13.5775 37.7384 12.5414C37.2054 12.0359 36.6777 11.535 36.1784 11.0448C36.0915 10.9602 35.9797 10.9058 35.8595 10.8895C35.7393 10.8733 35.6171 10.8961 35.5108 10.9546V10.9523C35.0994 11.2421 35.0864 11.3155 34.8937 11.4562C34.8631 11.834 34.8631 12.3051 34.8432 12.7172C31.4326 12.5184 28.4006 13.1784 25.8059 14.6886C25.8052 14.5556 25.8059 14.4225 25.799 14.2895C25.838 14.1476 25.8325 13.9971 25.7833 13.8585C25.7341 13.7198 25.6435 13.5996 25.5237 13.5141L25.4457 8.53888C26.0774 8.4902 26.7079 8.42773 27.3369 8.35153C27.8645 8.28882 27.9762 7.60747 28.0289 7.34135C28.0753 7.25682 28.099 7.16171 28.0977 7.06529C28.0916 6.90165 28.0847 6.78006 27.9869 6.64623C26.5347 4.66182 25.2102 2.98712 23.6785 0.517882C23.6306 0.441346 23.5653 0.377165 23.4879 0.330523C23.4106 0.283882 23.3233 0.256089 23.2333 0.249389C23.1432 0.24269 23.0528 0.257272 22.9694 0.291958C22.886 0.326643 22.812 0.38046 22.7532 0.449058C20.82 2.73171 19.0551 4.67176 17.424 6.84353C17.3636 6.92481 17.3259 7.02068 17.3147 7.12132C17.3036 7.22196 17.3194 7.32376 17.3605 7.41629L17.3567 7.42088C17.4248 7.64876 17.9417 8.19247 18.1635 8.21618C18.6812 8.27353 19.2027 8.24829 19.7227 8.26206C19.7227 8.34159 19.7938 15.0886 19.793 15.0114C19.4343 15.0018 19.0754 15.0197 18.7194 15.0649L17.6916 13.3864C17.6412 13.3038 17.575 13.2321 17.4967 13.1752C17.4185 13.1183 17.3299 13.0774 17.2358 13.0548C17.1418 13.0322 17.0442 13.0284 16.9487 13.0436C16.8532 13.0587 16.7616 13.0926 16.6792 13.1432C16.6478 13.1623 16.6287 13.1921 16.6019 13.2151L14.564 14.4279C12.5758 13.212 10.2358 12.4542 7.58376 12.1751C7.61052 11.7139 7.61664 11.0922 7.65105 10.6915C7.35282 10.3864 7.2534 10.3382 7.17693 10.274V10.2771C7.08531 10.2291 6.98237 10.2071 6.87917 10.2133C6.77596 10.2195 6.67639 10.2537 6.59117 10.3122C4.86982 11.5205 2.81964 12.8136 1.16099 14.1205C1.09948 14.1688 1.04851 14.2293 1.01122 14.298C0.97393 14.3668 0.951109 14.4425 0.94416 14.5204C0.937212 14.5984 0.946284 14.6769 0.970818 14.7512C0.995351 14.8255 1.03483 14.894 1.08682 14.9525C2.65446 16.7144 4.05158 18.1757 5.35846 19.4214ZM35.8733 24.4677C36.6609 26.1676 37.135 26.6073 37.4639 27.083C37.9036 27.7226 38.3949 28.3252 38.9329 28.8846C39.4131 29.3894 39.55 29.7534 39.5209 29.9109C39.4422 30.3361 37.3124 30.7276 36.5577 31.3118C35.7096 31.9465 35.8564 32.7671 35.9627 33.3651C36.056 33.8713 36.0063 33.7956 36.1791 34.4509C36.4223 35.3793 36.3382 35.4986 36.0545 35.9941C35.5521 36.8689 35.4787 37.3668 35.9964 38.2362C36.0805 38.3769 36.1532 38.4985 36.1769 38.6148C36.3527 39.3978 35.7555 40.1725 35.1047 40.5036C33.2916 41.4251 30.4446 40.2726 28.6613 41.2606C27.4814 41.9512 26.9859 43.5181 27.1839 44.8211L27.2573 45.2899C27.3146 45.5975 27.2605 45.9155 27.1047 46.1869C26.9489 46.4583 26.7015 46.6654 26.407 46.7711C25.2026 47.194 23.8842 47.5052 22.4825 47.6964C18.5741 48.2776 14.1495 48.2019 10.6976 46.2473C10.6901 46.0967 10.7334 45.948 10.8208 45.8252C15.1207 39.4705 9.99181 36.4002 8.32552 28.0366C7.61205 24.4624 7.98523 21.0992 9.35634 18.5122C9.7257 18.6498 9.9467 18.7332 10.4958 18.9741C10.1256 19.9988 9.92987 20.8178 9.6087 21.6046C9.4917 21.8899 9.57046 22.1568 9.76852 22.4038C10.0033 22.6622 10.0262 22.5582 12.2859 23.4422L12.5046 24.9357C12.0218 25.426 11.4665 25.8391 10.8582 26.1608C10.81 26.1715 10.7619 26.1715 10.7152 26.1913C10.5365 26.2698 10.3963 26.416 10.3253 26.5978C10.2543 26.7797 10.2584 26.9822 10.3367 27.161L11.535 29.8956C11.6558 30.1716 11.9265 30.3361 12.2102 30.3361C12.2408 30.3399 12.2722 30.3491 12.3028 30.3491C12.4018 30.349 12.4999 30.329 12.591 30.2902L14.4975 29.4788C14.7299 29.6386 15.5963 30.2259 15.7944 30.3605L15.3272 32.4505C15.3126 32.4749 15.2912 32.4933 15.2798 32.5193C15.2193 32.669 15.2104 32.8345 15.2546 32.9898C15.2988 33.145 15.3935 33.2811 15.5237 33.3765C15.825 33.6365 17.804 34.2154 18.974 34.2154C19.0711 34.2149 19.1671 34.1951 19.2564 34.157C19.3457 34.1189 19.4265 34.0634 19.494 33.9936C19.6067 33.9147 19.6947 33.8055 19.7479 33.6786C20.037 32.9796 20.3008 32.2639 20.5478 31.5451C21.2223 31.5343 21.4272 31.5137 21.964 31.5061L23.1685 33.2932C23.2623 33.435 23.4034 33.5389 23.5666 33.5865C23.7299 33.6341 23.9047 33.6223 24.0601 33.5532C25.1207 33.2427 26.095 32.7372 26.8054 32.1301C26.9171 32.0343 26.9974 31.9072 27.036 31.7653C27.0746 31.6234 27.0696 31.4731 27.0218 31.334C27.0203 31.3309 27.0218 31.3279 27.0203 31.3241L26.332 29.2823C26.683 28.8388 27.0616 28.4166 27.4684 28.0259L29.2395 28.4312C29.3159 28.4449 29.335 28.4541 29.4222 28.4541C29.566 28.4499 29.7056 28.4044 29.8242 28.3231C29.9429 28.2417 30.0356 28.1279 30.0913 27.9953C30.6786 26.8849 31.0679 25.5804 31.1 25.159C31.1197 24.9942 31.082 24.8277 30.9933 24.6874C30.9045 24.5471 30.7702 24.4417 30.6129 24.3889C29.9755 23.9908 29.3131 23.6339 28.63 23.3206C28.7294 22.793 28.7715 22.3128 28.7477 21.8784C29.4356 21.5143 30.0861 21.0838 30.6901 20.5929C30.8406 20.4687 30.9356 20.2897 30.9543 20.0954C30.9729 19.9011 30.9136 19.7074 30.7895 19.5568C30.7635 19.5254 30.7283 19.5086 30.6977 19.4826C30.6174 19.3434 30.528 19.2096 30.4439 19.0719C30.9588 18.9225 31.4801 18.7957 32.0062 18.6919C32.8045 18.5313 33.6174 18.4388 34.431 18.3761C34.4632 18.7775 34.4807 19.2302 34.5228 19.5935C34.678 19.6982 34.7178 19.7655 34.9747 19.9483C35.0115 20.0037 35.0578 20.0522 35.1116 20.0913C35.1976 20.2127 35.3279 20.2956 35.4744 20.3219C35.6208 20.3482 35.7718 20.3159 35.8947 20.232C36.0293 20.141 36.17 20.0401 36.3061 19.9452C36.2166 22.0964 35.2355 23.0805 35.8733 24.4677ZM35.4756 13.9086C35.6235 13.9218 35.7708 13.8773 35.8867 13.7846C36.0027 13.6919 36.0784 13.558 36.0981 13.4108L36.196 12.6507C37.6474 14.0402 38.692 15.0175 39.644 16.0192C38.4621 16.9654 37.2523 17.8763 36.0163 18.7508L36.0239 17.3666C36.0238 17.2274 35.9729 17.0929 35.8809 16.9883C35.7889 16.8838 35.6619 16.8163 35.5238 16.7985C33.3474 16.5209 31.3753 16.8061 29.5155 17.6603C29.3618 17.4439 29.2142 17.2229 29.0544 17.0126C28.9647 16.8952 28.8417 16.8077 28.7014 16.7616C28.5611 16.7154 28.4101 16.7128 28.2683 16.7541C28.2599 16.7556 28.2515 16.7526 28.243 16.7549C27.6053 16.9101 26.9882 17.1342 26.3894 17.3972L25.5933 16.5981C25.6293 16.4414 25.6622 16.2846 25.6897 16.1263C28.4029 14.3124 31.6842 13.5569 35.4756 13.9086ZM23.1226 1.78576C24.2436 3.53618 25.2462 4.87288 26.4919 6.55218L24.8302 6.61488C24.6803 6.62046 24.5386 6.6845 24.4354 6.79327C24.3322 6.90204 24.2757 7.0469 24.278 7.19682L24.3698 13.082C23.7366 12.8962 22.624 12.6423 22.0971 12.6392C21.95 12.6219 21.801 12.6497 21.67 12.7187C21.5389 12.7878 21.4319 12.895 21.363 13.0262C21.2697 13.2044 21.1986 13.3932 21.1145 13.576L21.0456 7.18229C21.0442 7.03111 20.9832 6.88661 20.8758 6.7802C20.7684 6.6738 20.6233 6.61411 20.4721 6.61412H19.0497C20.2855 5.04953 21.5779 3.59123 23.1226 1.78576ZM21.5029 16.4154C21.9212 16.1087 21.6352 15.9428 22.4626 14.161C23.0973 14.2604 23.7244 14.4103 24.3346 14.6122C24.3667 16.3741 23.8452 16.5958 24.1863 17.1357C24.2887 17.4768 24.3905 17.4263 25.6813 18.7722C25.7859 18.879 25.9211 18.9507 26.0683 18.9772C26.2154 19.0038 26.3672 18.984 26.5026 18.9205C26.5469 18.9083 26.592 18.9106 26.6349 18.8899C27.1305 18.6539 27.6452 18.4602 28.1735 18.3111C28.5375 18.8119 28.8808 19.3296 29.2027 19.8604C28.7799 20.1662 28.3386 20.4438 27.8752 20.6832C27.8469 20.6862 27.8194 20.6786 27.7911 20.6847C27.6004 20.7264 27.434 20.8422 27.3287 21.0065C27.2233 21.1709 27.1874 21.3703 27.229 21.5611C27.3407 22.0688 27.2856 22.7517 27.0654 23.5898C27.0381 23.691 27.0329 23.7969 27.0504 23.9003C27.0679 24.0036 27.1075 24.102 27.1666 24.1886C27.2256 24.2752 27.3027 24.348 27.3926 24.402C27.4824 24.456 27.5829 24.4899 27.6871 24.5014C28.3203 24.7766 28.9336 25.1009 29.5254 25.4565C29.3916 25.9398 29.2188 26.4124 29.0077 26.8681L27.3047 26.4781C27.1286 26.439 26.9442 26.4666 26.7873 26.5556C26.6304 26.6446 26.512 26.7887 26.4552 26.9599C25.9532 27.4414 25.488 27.9598 25.0634 28.5107C24.9535 28.591 24.8687 28.7007 24.8187 28.8273C24.7688 28.9539 24.7558 29.092 24.7812 29.2257L24.7835 29.2387C24.7896 29.2693 24.7843 29.2999 24.795 29.3305L25.4603 31.3011C25.0269 31.5884 24.56 31.8216 24.07 31.9955L22.9643 30.3621C22.6003 29.8291 22.1277 30.0868 20.2786 30.0738L20.2687 30.0676C20.0831 30.0075 19.8813 30.0233 19.7073 30.1116C19.5333 30.1998 19.4014 30.3534 19.3403 30.5387C19.1033 31.2652 18.8341 31.9893 18.5504 32.7013C17.976 32.6416 17.4094 32.5224 16.8596 32.3457L17.3552 30.1304C17.3763 30.036 17.3786 29.9383 17.3619 29.843C17.3453 29.7477 17.3101 29.6567 17.2582 29.575C17.2064 29.4933 17.139 29.4227 17.0598 29.3671C16.9807 29.3115 16.8913 29.272 16.7969 29.2509H16.7809C15.9649 28.6851 15.7455 28.5627 15.1459 28.1398C14.9808 27.9601 14.7353 27.8676 14.4294 27.9318C14.161 28.0006 13.9805 28.1131 12.6117 28.6812L11.9724 27.2245C12.6748 26.7995 13.3094 26.2716 13.8551 25.6583C14.1717 25.3005 13.9889 25.1689 13.6853 22.8366C13.6494 22.5934 13.4055 22.2898 13.1776 22.2049L11.2253 21.4708C11.4685 20.7574 11.5671 20.3781 11.7904 19.7196L13.6463 20.3849C13.6678 20.4018 13.6808 20.4239 13.7045 20.4385C13.8719 20.5389 14.0724 20.5688 14.2618 20.5214C14.4512 20.4741 14.6141 20.3535 14.7146 20.1861C16.0643 17.8714 16.1416 17.9585 16.163 17.5999C16.3488 17.1296 16.0299 16.8979 15.5206 15.5719L16.8283 14.7942L17.7215 16.2509C17.8897 16.5262 18.2246 16.6692 18.5565 16.5714C20.352 16.2096 20.9347 16.969 21.5029 16.4154ZM6.31358 11.8975L6.28223 12.6591C6.27606 12.8079 6.32799 12.9532 6.42703 13.0644C6.52607 13.1755 6.66445 13.2438 6.81293 13.2548C9.55975 13.4544 11.8722 14.1442 13.8681 15.3463C13.8926 15.6231 13.9071 15.4992 14.6925 17.3651L13.7878 18.8716L12.3425 18.3531C10.3122 17.3231 8.38899 16.5981 6.40534 16.1164C6.32993 16.0984 6.25166 16.0957 6.1752 16.1086C6.09874 16.1215 6.02565 16.1496 5.96029 16.1913C5.70564 16.3542 5.71176 16.462 5.48235 17.9394C4.40758 16.8739 3.36482 15.7766 2.35546 14.6489C3.57211 13.732 4.95164 12.8251 6.31358 11.8975Z" fill="#62788D"/>
</svg>
