<svg width="48" height="43" viewBox="0 0 48 43" fill="none" xmlns="http://www.w3.org/2000/svg">
<path d="M44.0028 38.8694C44.1025 38.6835 44.4002 22.3006 44.3212 22.1169C44.325 21.9939 44.2858 21.8735 44.2102 21.7764C44.1346 21.6794 44.0275 21.6118 43.9073 21.5855C41.6407 21.1132 39.1076 20.6972 36.0524 20.185C36.0646 19.0973 36.0382 4.81439 36.019 4.74173L36.0197 4.74031C36.0616 4.60513 36.0481 4.45886 35.9823 4.33359C35.9165 4.20832 35.8036 4.11429 35.6685 4.07214C32.8712 3.20096 27.9326 2.73653 27.1376 2.70803C24.7371 2.62398 17.6181 2.95236 12.7151 3.58562C12.6409 3.59446 12.5695 3.61911 12.5057 3.65792C12.4418 3.69672 12.3871 3.74877 12.3451 3.81055C12.3031 3.87234 12.2748 3.94241 12.2622 4.01605C12.2496 4.08969 12.253 4.16517 12.272 4.2374C12.2222 4.46107 12.2649 3.00507 12.2492 20.4436C11.6359 20.3189 10.846 20.3132 10.3188 20.2598C9.70623 20.1964 4.84815 21.3433 1.56645 21.9666C1.49441 21.9798 1.42592 22.0079 1.36537 22.0491C1.30481 22.0903 1.25352 22.1437 1.21476 22.2058C1.17601 22.268 1.15066 22.3375 1.14032 22.41C1.12998 22.4825 1.13488 22.5564 1.15472 22.6269C1.00228 28.218 0.777897 34.8483 1.11412 40.3233C1.07881 40.3991 1.06213 40.4822 1.06548 40.5657C1.06884 40.6493 1.09212 40.7308 1.13339 40.8035C1.17466 40.8762 1.23272 40.938 1.30272 40.9837C1.37273 41.0294 1.45265 41.0577 1.53582 41.0662C16.3252 42.7423 16.2497 42.8741 17.1123 42.6341C18.8675 42.7231 21.0216 42.0307 22.5474 41.7985L29.883 40.6844C33.409 41.3718 32.5592 41.3184 33.419 41.1603C35.4049 41.3476 43.7435 40.6032 46.9183 40.3959C47.075 40.386 47.1142 40.178 46.9753 40.1067C45.8256 39.5176 45.0363 39.1052 44.0028 38.8694ZM13.3177 4.88348C18.4031 4.89061 26.7637 5.2482 29.3088 5.31302C29.1201 10.5237 29.0702 17.2709 28.885 22.5051C26.6262 22.3997 18.8924 21.9096 13.3177 21.5085V4.88348ZM34.9669 5.37499C34.9263 8.05264 34.9512 10.6462 34.9754 13.1586C34.9996 15.7016 35.0253 18.328 34.9825 21.0334C33.4161 21.5356 31.9551 21.874 29.9578 22.4004C30.1401 17.1334 30.1914 10.4033 30.378 5.30946C31.5042 5.26102 32.2992 5.21401 34.9669 5.37499ZM43.0091 38.2112C39.9297 38.7725 36.3203 39.5419 33.2195 40.1117C33.2523 34.7251 33.3919 29.2758 33.6362 23.8934C36.8816 23.5123 40.1141 23.2879 43.2869 22.9282C43.2042 27.9181 43.0967 32.8524 43.0091 38.2112ZM22.2853 23.1882L24.0875 23.3036C24.0853 23.3271 23.7676 36.7317 23.7584 38.9371C21.3642 40.0654 18.9459 41.0007 17.0411 41.5492C17.3239 35.9987 17.2377 30.1605 17.2997 24.5886C19.1688 24.0558 21.0358 23.481 22.1706 23.2381C22.2133 23.2288 22.2482 23.2067 22.2853 23.1882ZM24.834 38.66C24.8568 34.5805 24.9864 32.2896 25.1438 23.3684C30.1088 23.669 29.4691 23.632 30.3524 23.4012C30.7228 23.5116 31.5192 23.6078 32.572 23.7574C32.3239 29.1834 32.1826 34.6138 32.1482 40.0455C29.7163 39.5518 27.278 39.0895 24.834 38.66ZM40.9134 22.0998C38.2144 22.3633 35.8986 22.5485 33.4389 22.8392C33.3413 22.7964 33.4368 22.805 32.9275 22.7295C33.8449 22.4873 34.7674 22.2337 35.6785 21.9288C35.7831 21.8938 35.8743 21.8273 35.9396 21.7384C36.0049 21.6495 36.0411 21.5426 36.0432 21.4323C36.0439 21.376 36.0432 21.3233 36.0446 21.2671C37.7286 21.5506 39.3185 21.8127 40.9134 22.0998ZM31.0462 4.20962C28.5993 4.29866 31.1602 4.27231 20.6818 3.95675C23.4314 3.7979 27.8065 3.73735 31.0462 4.20962ZM10.2106 21.3226C10.7591 21.3789 11.5875 21.3881 12.0797 21.4957C12.1374 21.5085 12.1937 21.5043 12.2492 21.4986V22.0057C12.2492 22.2857 12.4658 22.5186 12.745 22.5386C12.8134 22.5435 15.6798 22.7473 19.037 22.9731C17.9137 23.2993 17.3631 23.4625 16.6522 23.6626C12.6567 23.1248 8.7453 22.6276 4.9842 22.3612C5.95724 22.156 9.82305 21.3226 10.2106 21.3226ZM2.1705 40.064C1.86206 34.8106 2.06294 28.5563 2.20612 23.2794C6.65818 23.4482 11.3809 24.0337 16.2319 24.6848C16.1699 30.3457 16.2554 36.1426 15.9683 41.6311C13.6618 41.4366 6.35757 40.5434 2.1705 40.064Z" fill="#62788D"/>
<path d="M11.0391 37.2082L9.11512 36.9995V27.1231C9.11502 27.0175 9.08364 26.9143 9.02493 26.8265C8.96622 26.7388 8.88282 26.6704 8.78525 26.63C8.68769 26.5896 8.58034 26.579 8.47677 26.5996C8.3732 26.6201 8.27805 26.6709 8.20334 26.7456L4.83117 30.1177C4.77868 30.1666 4.73658 30.2256 4.70738 30.2911C4.67818 30.3567 4.66248 30.4274 4.66122 30.4992C4.65995 30.5709 4.67315 30.6421 4.70002 30.7087C4.72689 30.7752 4.76688 30.8356 4.81761 30.8864C4.86834 30.9371 4.92877 30.9771 4.99529 31.0039C5.06182 31.0308 5.13307 31.044 5.2048 31.0427C5.27654 31.0415 5.34728 31.0258 5.41282 30.9966C5.47835 30.9674 5.53733 30.9253 5.58624 30.8728L8.04662 28.4131V36.8841L6.19599 36.6833C5.48651 36.6142 5.38394 37.6705 6.08131 37.7461L10.9244 38.271C11.0654 38.2862 11.2065 38.2447 11.3169 38.1557C11.4272 38.0667 11.4977 37.9376 11.5128 37.7966C11.5279 37.6557 11.4864 37.5145 11.3975 37.4042C11.3085 37.2938 11.1801 37.2234 11.0391 37.2082ZM24.8191 16.6276C23.0581 16.7296 21.2932 16.7438 19.5308 16.6704C28.2354 9.88688 21.2511 5.01099 17.9366 9.10189C17.8514 9.2124 17.8127 9.35187 17.829 9.49048C17.8453 9.62908 17.9152 9.75582 18.0237 9.84358C18.1322 9.93134 18.2707 9.97315 18.4097 9.96008C18.5486 9.94701 18.6769 9.88008 18.7672 9.77362C20.7467 7.33104 24.5584 9.17811 21.5645 13.1059C20.4925 14.5148 19.1776 15.7209 17.6816 16.6675C17.2463 16.9432 17.418 17.6156 17.9295 17.652C20.1705 17.8087 22.4912 17.8322 24.8811 17.6947C25.5842 17.6534 25.5286 16.5885 24.8191 16.6276ZM36.0112 27.5541C36.1125 27.653 36.2489 27.7076 36.3905 27.706C36.5321 27.7044 36.6673 27.6467 36.7663 27.5455C37.3347 26.9657 38.441 26.9443 39.0871 27.5021C39.7303 28.0555 39.9333 29.1262 39.5501 29.9404C39.169 30.7474 38.2707 31.3137 37.3148 31.3501C36.6573 31.3743 36.6224 32.3423 37.2756 32.4143C38.2586 32.5225 39.263 32.6814 39.7901 33.3225C40.4063 34.0704 40.1035 35.3669 39.3107 35.9724C38.5215 36.5771 37.2827 36.6776 36.1544 36.2274C35.4948 35.9667 35.1044 36.9596 35.7591 37.2204C36.3398 37.4537 36.9595 37.5751 37.5855 37.5779C41.4491 37.5779 42.4678 32.9599 39.3378 31.7539C41.2882 30.4169 41.1614 27.8789 39.7844 26.6921C37.9381 25.1001 35.1664 26.7278 36.0112 27.5541ZM38.6027 0.972797C38.5443 0.933794 38.4789 0.906685 38.41 0.893022C38.3412 0.879359 38.2703 0.87941 38.2015 0.893173C38.1327 0.906937 38.0673 0.934141 38.009 0.973229C37.9507 1.01232 37.9007 1.06252 37.8618 1.12096L36.4635 3.21948C36.0711 3.80787 36.9608 4.39981 37.3525 3.81214L38.7508 1.71433C38.8294 1.59644 38.858 1.45217 38.8302 1.31324C38.8024 1.17431 38.7206 1.05139 38.6027 0.972797ZM38.7309 6.31384L41.3779 4.42403C41.4378 4.38446 41.4891 4.33323 41.5288 4.27339C41.5684 4.21355 41.5956 4.14633 41.6087 4.07575C41.6218 4.00516 41.6206 3.93266 41.605 3.86258C41.5895 3.79249 41.56 3.72626 41.5183 3.66783C41.4765 3.6094 41.4235 3.55998 41.3622 3.52252C41.301 3.48506 41.2328 3.46032 41.1618 3.44979C41.0908 3.43925 41.0184 3.44314 40.9489 3.46122C40.8795 3.47929 40.8143 3.51118 40.7575 3.55499L38.1105 5.44408C37.5342 5.85439 38.1582 6.72556 38.7309 6.31313V6.31384ZM39.4005 8.57975C41.5937 9.12113 41.5061 9.1197 41.6286 9.1197C42.2555 9.1197 42.3652 8.21932 41.7576 8.06688L39.6598 7.5426C38.9795 7.36666 38.7109 8.40737 39.4005 8.57975Z" fill="#EC9A00"/>
</svg>
