<svg width="59" height="60" viewBox="0 0 59 60" fill="none" xmlns="http://www.w3.org/2000/svg">
<path d="M45.1719 0.5H13.8281C6.19106 0.5 0 6.69106 0 14.3281V45.6719C0 53.3089 6.19106 59.5 13.8281 59.5H45.1719C52.8089 59.5 59 53.3089 59 45.6719V14.3281C59 6.69106 52.8089 0.5 45.1719 0.5Z" fill="url(#paint0_radial_328_1644)"/>
<path d="M45.1719 0.5H13.8281C6.19106 0.5 0 6.69106 0 14.3281V45.6719C0 53.3089 6.19106 59.5 13.8281 59.5H45.1719C52.8089 59.5 59 53.3089 59 45.6719V14.3281C59 6.69106 52.8089 0.5 45.1719 0.5Z" fill="url(#paint1_radial_328_1644)"/>
<path d="M29.5019 10.3333C24.1609 10.3333 23.4904 10.3567 21.3928 10.452C19.2991 10.548 17.8699 10.8794 16.6195 11.3658C15.3258 11.868 14.2286 12.54 13.1355 13.6335C12.0415 14.7268 11.3695 15.824 10.8656 17.1171C10.3779 18.3679 10.0461 19.7976 9.95189 21.8904C9.85808 23.9882 9.8335 24.6588 9.8335 30.0001C9.8335 35.3414 9.8571 36.0097 9.95228 38.1073C10.0486 40.201 10.38 41.6302 10.866 42.8806C11.3687 44.1743 12.0407 45.2715 13.1342 46.3645C14.227 47.4586 15.3242 48.1322 16.6169 48.6345C17.8683 49.1208 19.2977 49.4522 21.391 49.5482C23.4888 49.6436 24.1587 49.667 29.4996 49.667C34.8412 49.667 35.5095 49.6436 37.6072 49.5482C39.7009 49.4522 41.1316 49.1208 42.383 48.6345C43.6761 48.1322 44.7717 47.4586 45.8644 46.3645C46.9585 45.2715 47.6303 44.1743 48.1343 42.8812C48.6177 41.6302 48.9497 40.2006 49.048 38.1077C49.1422 36.01 49.1668 35.3414 49.1668 30.0001C49.1668 24.6588 49.1422 23.9886 49.048 21.8908C48.9497 19.797 48.6177 18.3681 48.1343 17.1177C47.6303 15.824 46.9585 14.7268 45.8644 13.6335C44.7705 12.5397 43.6765 11.8676 42.3818 11.3659C41.1281 10.8794 39.6981 10.5478 37.6044 10.452C35.5066 10.3567 34.8387 10.3333 29.4958 10.3333H29.5019ZM27.7376 13.8774C28.2614 13.8766 28.8457 13.8774 29.5019 13.8774C34.7531 13.8774 35.3754 13.8963 37.449 13.9905C39.3665 14.0782 40.4073 14.3985 41.1005 14.6678C42.0184 15.0241 42.6727 15.4503 43.3606 16.1389C44.049 16.8272 44.475 17.4827 44.8323 18.4005C45.1015 19.0928 45.4223 20.1335 45.5096 22.051C45.6038 24.1243 45.6243 24.7469 45.6243 29.9956C45.6243 35.2442 45.6038 35.8671 45.5096 37.9401C45.4219 39.8576 45.1015 40.8984 44.8323 41.5909C44.4759 42.5087 44.049 43.1622 43.3606 43.8502C42.6723 44.5385 42.0188 44.9645 41.1005 45.321C40.4081 45.5914 39.3665 45.911 37.449 45.9987C35.3758 46.0929 34.7531 46.1134 29.5019 46.1134C24.2505 46.1134 23.6281 46.0929 21.555 45.9987C19.6375 45.9102 18.5968 45.5899 17.9029 45.3206C16.9853 44.9641 16.3296 44.5381 15.6413 43.8498C14.9529 43.1614 14.5269 42.5075 14.1696 41.5893C13.9004 40.8968 13.5796 39.8561 13.4923 37.9386C13.3981 35.8653 13.3792 35.2427 13.3792 29.9907C13.3792 24.7389 13.3981 24.1194 13.4923 22.0461C13.58 20.1286 13.9004 19.0879 14.1696 18.3946C14.5262 17.4768 14.9529 16.8213 15.6415 16.133C16.3298 15.4446 16.9853 15.0184 17.9031 14.6613C18.5964 14.3909 19.6375 14.0713 21.555 13.9832C23.3693 13.9012 24.0724 13.8766 27.7376 13.8725V13.8774ZM40 17.1428C38.6971 17.1428 37.64 18.1989 37.64 19.502C37.64 20.805 38.6971 21.862 40 21.862C41.3029 21.862 42.36 20.805 42.36 19.502C42.36 18.1991 41.3029 17.142 40 17.142V17.1428ZM29.5019 19.9003C23.9245 19.9003 19.4023 24.4225 19.4023 30.0001C19.4023 35.5778 23.9245 40.0978 29.5019 40.0978C35.0796 40.0978 39.6002 35.5778 39.6002 30.0001C39.6002 24.4226 35.0792 19.9003 29.5015 19.9003H29.5019ZM29.5019 23.4444C33.1224 23.4444 36.0576 26.3793 36.0576 30.0001C36.0576 33.6205 33.1224 36.5558 29.5019 36.5558C25.8813 36.5558 22.9464 33.6205 22.9464 30.0001C22.9464 26.3793 25.8813 23.4444 29.5019 23.4444Z" fill="white"/>
<defs>
<radialGradient id="paint0_radial_328_1644" cx="0" cy="0" r="1" gradientUnits="userSpaceOnUse" gradientTransform="translate(15.6719 64.0441) rotate(-90) scale(58.4734 54.3849)">
<stop stop-color="#FFDD55"/>
<stop offset="0.1" stop-color="#FFDD55"/>
<stop offset="0.5" stop-color="#FF543E"/>
<stop offset="1" stop-color="#C837AB"/>
</radialGradient>
<radialGradient id="paint1_radial_328_1644" cx="0" cy="0" r="1" gradientUnits="userSpaceOnUse" gradientTransform="translate(-9.88273 4.75007) rotate(78.681) scale(26.1379 107.741)">
<stop stop-color="#3771C8"/>
<stop offset="0.128" stop-color="#3771C8"/>
<stop offset="1" stop-color="#6600FF" stop-opacity="0"/>
</radialGradient>
</defs>
</svg>
