<svg width="25" height="20" viewBox="0 0 25 20" fill="none" xmlns="http://www.w3.org/2000/svg">
<path d="M11.2887 2.63343L7.00939 10.6058L4.31284 11.3679C4.62548 10.7817 4.97721 10.3127 5.36801 9.96102C5.75882 9.57021 6.20824 9.37481 6.71629 9.37481C7.84964 9.37481 8.86573 9.84378 9.76458 10.7817C10.7025 11.6806 11.1715 12.853 11.1715 14.2989C11.1715 15.8231 10.6439 17.1323 9.58872 18.2265C8.57263 19.3208 7.30249 19.8679 5.77836 19.8679C4.33238 19.8679 3.06226 19.3403 1.96801 18.2852C0.912839 17.1909 0.385254 15.8622 0.385254 14.2989C0.385254 13.6737 0.502495 12.9507 0.736977 12.13C1.01054 11.3093 1.49905 10.2346 2.20249 8.90585L6.89215 0.22998L11.2887 2.63343ZM24.4784 2.63343L20.1991 10.6058L17.5611 11.3679C17.8347 10.7817 18.1669 10.3127 18.5577 9.96102C18.9876 9.57021 19.437 9.37481 19.906 9.37481C21.0393 9.37481 22.0749 9.84378 23.0129 10.7817C23.9508 11.6806 24.4198 12.853 24.4198 14.2989C24.4198 15.8231 23.8922 17.1323 22.837 18.2265C21.8209 19.3208 20.5508 19.8679 19.0266 19.8679C17.5807 19.8679 16.3106 19.3403 15.2163 18.2852C14.1611 17.1909 13.6335 15.8622 13.6335 14.2989C13.6335 13.6737 13.7508 12.9507 13.9853 12.13C14.2198 11.3093 14.6887 10.2346 15.3922 8.90585L20.1404 0.22998L24.4784 2.63343Z" fill="#FCCB6E"/>
</svg>
