<svg width="68" height="68" viewBox="0 0 68 68" fill="none" xmlns="http://www.w3.org/2000/svg">
<g filter="url(#filter0_d_328_1662)">
<rect x="16" y="14.5" width="35.0324" height="35" rx="17.5" fill="#776EE9"/>
<path d="M34.9966 24.8772H32.155C29.4043 24.8772 27.1855 27.1215 27.1855 29.9073V32.063C27.1855 34.0088 28.2884 35.7774 30.0271 36.6042V39.0126C30.0271 39.134 30.1374 39.2456 30.2769 39.2456C30.332 39.2456 30.3969 39.2226 30.4423 39.18L32.4956 37.0898H34.9966C37.7505 37.0898 39.9693 34.8455 39.9693 32.0598V29.904C39.9693 27.1215 37.7505 24.8772 34.9966 24.8772ZM36.865 34.3041L36.1546 35.0227C35.3891 35.7741 33.4233 34.9111 31.6847 33.1229C29.946 31.3346 29.174 29.3101 29.9071 28.5587L30.6175 27.8401C30.9029 27.5743 31.3506 27.5875 31.6328 27.8631L32.661 28.9459C32.9238 29.2346 32.9238 29.6645 32.6383 29.9532C32.5605 30.032 32.4729 30.0746 32.3756 30.1206C32.0155 30.2321 31.8306 30.5832 31.9182 30.9507C32.0934 31.748 33.086 32.7422 33.8418 32.9391C34.1921 33.0277 34.5522 32.8276 34.6722 32.4863C34.7922 32.1319 35.1847 31.9351 35.5577 32.0565C35.668 32.0893 35.7556 32.168 35.8432 32.2337L36.8715 33.3165C37.1277 33.5757 37.1277 34.0186 36.865 34.3041ZM34.2116 28.2929C34.1337 28.2929 34.0688 28.2929 34.004 28.3159C33.884 28.3389 33.7542 28.2372 33.7412 28.0961C33.7283 27.955 33.8191 27.8434 33.9488 27.8303C34.0364 27.8073 34.124 27.8073 34.2116 27.8073C35.5221 27.8073 36.573 28.8901 36.5925 30.196C36.5925 30.2846 36.5925 30.3732 36.5698 30.4618C36.5471 30.5832 36.4498 30.6948 36.3071 30.6718C36.1643 30.6488 36.0767 30.5504 36.0995 30.406C36.0995 30.3273 36.1222 30.2617 36.1222 30.196C36.1124 29.1559 35.2593 28.2929 34.2116 28.2929ZM35.6323 30.2157C35.6096 30.3371 35.5123 30.4487 35.3696 30.4257C35.2593 30.4027 35.162 30.3142 35.162 30.2157C35.162 29.6973 34.7371 29.2642 34.2213 29.2642C34.1013 29.2871 33.9715 29.1756 33.9586 29.0443C33.9359 28.9229 34.0461 28.7917 34.1662 28.7785H34.1986C35.0193 28.7785 35.6323 29.4184 35.6323 30.2157ZM37.4456 30.977C37.4229 31.0984 37.3029 31.187 37.1829 31.1771C37.0629 31.1673 36.9753 31.0327 36.985 30.9113C36.985 30.8884 36.985 30.8884 36.985 30.8785C37.0401 30.6685 37.0629 30.4487 37.0629 30.2157C37.0629 28.6342 35.7848 27.3414 34.2213 27.3414C34.1435 27.3414 34.0786 27.3414 34.0137 27.3414C33.8937 27.3644 33.7639 27.2528 33.7639 27.1215C33.7412 27.0001 33.8515 26.8689 33.9715 26.8689C34.0591 26.8689 34.1467 26.8459 34.2213 26.8459C36.0476 26.8459 37.5429 28.3487 37.5429 30.2059C37.5332 30.4585 37.5008 30.7341 37.4456 30.977Z" fill="white"/>
</g>
<defs>
<filter id="filter0_d_328_1662" x="0" y="0.5" width="67.0322" height="67" filterUnits="userSpaceOnUse" color-interpolation-filters="sRGB">
<feFlood flood-opacity="0" result="BackgroundImageFix"/>
<feColorMatrix in="SourceAlpha" type="matrix" values="0 0 0 0 0 0 0 0 0 0 0 0 0 0 0 0 0 0 127 0" result="hardAlpha"/>
<feOffset dy="2"/>
<feGaussianBlur stdDeviation="8"/>
<feComposite in2="hardAlpha" operator="out"/>
<feColorMatrix type="matrix" values="0 0 0 0 0.694118 0 0 0 0 0.694118 0 0 0 0 0.694118 0 0 0 1 0"/>
<feBlend mode="normal" in2="BackgroundImageFix" result="effect1_dropShadow_328_1662"/>
<feBlend mode="normal" in="SourceGraphic" in2="effect1_dropShadow_328_1662" result="shape"/>
</filter>
</defs>
</svg>
