<svg width="50" height="50" viewBox="0 0 50 50" fill="none" xmlns="http://www.w3.org/2000/svg">
<path d="M35.9338 7.98072C37.1191 7.7949 37.8211 6.76484 37.672 5.71108C37.5137 4.58849 36.4393 3.7519 35.2708 3.87808C33.4738 4.0509 32.7228 6.17755 34.0718 7.41714C32.68 7.42096 30.6719 8.43266 29.9561 10.0271C29.9219 10.1034 29.9048 10.1864 29.906 10.2701C29.9072 10.3538 29.9267 10.4362 29.9631 10.5115C29.9995 10.5869 30.052 10.6533 30.1169 10.7062C30.1817 10.7591 30.2574 10.7972 30.3385 10.8178L37.1176 12.5437C37.2634 12.581 37.4179 12.5597 37.5482 12.4844C37.6784 12.4091 37.7739 12.2857 37.8143 12.1407C37.8647 11.9572 37.8372 11.7813 37.812 11.6184C37.6743 10.1196 37.3738 8.89149 35.9338 7.98072ZM35.4857 5.01443C36.3261 5.01443 36.8393 5.90761 36.3644 6.51096C35.8375 7.17625 34.6553 6.85584 34.5367 6.01314C34.4648 5.49849 34.8701 5.01443 35.4857 5.01443ZM31.3739 9.89784C33.1595 7.74137 36.2436 8.17725 36.6198 11.2323L31.3739 9.89784ZM14.6758 23.684C13.8262 23.8407 13.2328 24.6544 13.3452 25.6913C13.4507 26.6724 14.3454 27.5518 15.1491 27.834L15.1553 27.8348C15.3694 29.3917 15.8336 31.0917 16.8529 32.5561C18.8511 35.4291 22.4307 36.5425 25.5988 34.6712C27.7706 33.3881 28.4084 30.3935 28.8014 28.1231C30.9044 27.8004 31.0229 24.8042 29.765 24.0648C30.8317 20.3124 29.0538 16.693 25.969 15.5597C24.0366 14.8485 21.5796 15.3991 20.0846 16.8353C17.236 16.04 13.9776 18.6889 14.6758 23.684ZM17.7935 31.9C16.7504 30.4011 16.2259 28.4167 16.1417 25.6944C16.5906 24.8639 17.1076 23.8484 17.4846 22.7931C20.4899 24.0831 23.5686 23.8591 26.6564 22.1247C26.674 22.2012 27.6605 26.3597 27.6804 26.4369C27.5672 27.9762 27.376 29.5714 26.7589 31.0182C26.0554 32.667 24.8081 33.8912 23.4225 34.2935C21.2553 34.9244 18.952 33.567 17.7935 31.9ZM20.0234 18.0259C20.1336 18.0722 20.2556 18.0828 20.3722 18.0562C20.4888 18.0296 20.5941 17.9671 20.6734 17.8775C21.8128 16.589 23.9639 16.0445 25.5736 16.6364C28.3151 17.6435 29.7772 21.1077 28.4229 24.441C28.0895 23.086 27.8341 22.2257 27.6077 21.1092C27.5892 21.018 27.5487 20.9327 27.4898 20.8606C27.431 20.7886 27.3554 20.7319 27.2698 20.6956C27.1841 20.6592 27.0909 20.6442 26.9982 20.652C26.9054 20.6597 26.816 20.6898 26.7375 20.7398C23.5747 22.748 20.4325 23.0003 17.3951 21.4893C17.3201 21.4519 17.2378 21.4315 17.1541 21.4292C17.0704 21.427 16.9872 21.443 16.9103 21.4762C16.4706 21.6682 16.7474 21.8158 15.8511 23.7344C15.7265 22.9506 15.6883 22.2624 15.7502 21.6231C16.0416 18.6637 18.3196 17.317 20.0234 18.0259Z" fill="#62788D"/>
<path d="M35.1644 47.5604C32.1362 32.8811 13.3084 32.9201 7.34443 47.0098C7.30311 47.1165 7.28626 47.2311 7.29513 47.3452C7.304 47.4593 7.33835 47.57 7.39567 47.669C7.53255 47.9114 7.74743 48.0284 8.0212 48.0636L8.54578 49.1785C15.3685 49.7383 25.0642 49.8056 32.5476 49.7444C33.3773 49.7375 34.5664 49.1135 34.9067 48.3435C34.9304 48.3205 34.9626 48.3098 34.9832 48.2838C35.1514 48.0812 35.2172 47.8173 35.1644 47.5604ZM23.0079 37.6146C22.9483 38.0482 22.6906 38.3029 22.2814 38.4314C21.5871 38.6501 21.1015 38.3319 20.9363 37.6644C21.623 37.5856 22.3128 37.5573 23.0079 37.6146ZM8.60773 46.9831C10.7359 42.2855 14.5487 39.0148 19.7992 37.841C19.9521 38.5789 20.4148 39.2557 21.1741 39.5256C20.427 41.3839 19.8925 42.8231 19.283 44.3012C19.2481 44.3857 19.2338 44.4774 19.2416 44.5685C19.2493 44.6597 19.2787 44.7476 19.3274 44.8251C19.8787 45.7045 21.1413 47.0978 21.7148 47.6545C16.9591 47.6009 12.0917 47.4044 8.60773 46.9831ZM20.4599 44.4549C20.9463 43.2612 21.4907 41.8358 21.9534 40.6605C22.39 41.8427 22.845 43.1588 23.4468 44.497C23.0767 45.0629 22.5521 45.797 22.1048 46.4149C21.5817 45.8582 20.879 45.0514 20.4599 44.4549ZM22.6202 47.6636C22.8404 47.3937 24.2284 45.4154 24.5794 44.8572C24.6214 44.7904 24.6493 44.7156 24.6611 44.6376C24.6729 44.5596 24.6685 44.48 24.6482 44.4037C23.2603 40.9166 22.8144 39.8002 22.6898 39.4889C23.5126 39.1884 24.0242 38.5965 24.1366 37.7714C28.8288 38.6508 32.7579 41.9681 33.9692 47.4579C30.2504 47.6568 26.0178 47.6896 22.621 47.6644L22.6202 47.6636ZM47.5512 5.16054C29.995 0.668655 30.6305 0.699244 29.865 0.914891C28.7042 1.24142 28.3907 2.63701 28.2729 3.16313C27.731 5.62241 27.2207 8.08853 26.742 10.5609C26.6548 11.0136 26.5867 11.5122 26.6984 11.9832C26.6793 13.0194 27.2612 13.4691 28.2163 13.8721C29.7526 14.519 31.3807 14.8907 33.0317 15.1614C33.4454 15.2294 34.1512 15.4435 34.6406 15.4711C34.6819 16.4621 34.8739 17.5373 34.9335 18.4458C35.2486 18.7279 35.4627 18.9933 35.7234 19.2671C35.7541 19.3911 35.8255 19.5012 35.9261 19.5798C36.0268 19.6584 36.1509 19.701 36.2786 19.7006C36.5616 19.7006 36.3681 19.7741 39.758 17.0678C40.2169 17.0372 41.3333 17.5939 43.7789 17.8478C44.5076 17.9227 45.228 17.9151 45.6065 17.2834C45.9216 17.1481 46.076 16.8659 46.1494 16.729C46.5853 15.9199 48.9529 9.22112 49.2266 8.34936C49.4614 7.60148 49.6334 6.74271 49.1287 6.03842C48.7135 5.45724 48.0138 5.27907 47.5512 5.16054ZM48.1323 8.00524C47.7959 9.07736 45.4062 15.6905 45.1393 16.1845C45.1364 16.1909 45.1331 16.197 45.1293 16.2029C40.2964 15.5758 40.4363 15.0581 39.7068 15.6408C38.354 16.7206 37.5901 17.3308 36.8101 17.9594C36.6977 16.7152 36.3689 15.5062 35.8007 14.2292C35.5193 13.5945 35.0321 14.2139 28.7233 12.3419C27.7904 12.0651 27.6558 11.8831 27.8684 10.7765C28.3449 8.31573 28.8527 5.86108 29.3917 3.41318C29.7526 1.80807 30.2267 1.91436 30.9846 2.1063C48.686 6.65018 47.9335 6.34124 48.1973 6.70601C48.4069 7.00042 48.2814 7.5273 48.1323 8.00601V8.00524ZM12.2041 16.0431C12.3172 16.0434 12.4278 16.0099 12.5215 15.9468C12.6153 15.8837 12.688 15.7939 12.7303 15.689C12.9291 15.4588 13.0966 15.1874 13.3397 15.0176C13.4368 14.1038 13.5454 13.3329 13.7863 12.5315C13.9423 12.4979 13.4223 12.6615 17.0149 11.3172C18.3501 10.8171 19.7082 10.0722 19.371 8.68124C19.3618 8.32948 19.267 8.00448 19.202 7.78654C18.6091 5.85145 17.9917 3.92399 17.3498 2.0046C17.2046 1.57713 16.8191 0.442302 15.7983 0.269479C15.136 0.157832 15.7378 0.0454201 1.97772 5.16589C0.452901 5.72948 0.315254 6.61348 0.77943 7.88671C0.958371 8.37612 3.80996 14.2407 4.16402 14.6314V14.6329C4.41255 15.1201 4.96237 15.4481 5.48926 15.4833C6.83743 15.5743 8.01661 14.6039 9.3319 14.3057C12.0787 16.0584 11.9548 16.0431 12.2041 16.0431ZM1.8982 7.54948C1.75749 7.22601 1.6122 6.82759 1.73149 6.61806C1.8829 6.35118 1.53878 6.56454 15.0274 1.5343C15.5857 1.32936 15.8648 1.19783 16.2647 2.37395C16.8031 3.96454 17.6672 6.67848 18.1046 8.11995C18.3493 8.92824 18.2744 9.03301 17.619 9.30524C12.627 11.3852 12.2676 10.8599 12.0634 11.4831C11.7377 12.4887 11.574 13.4301 11.5671 14.3745C11.0418 14.0365 10.5447 13.7199 10.0102 13.3788C8.03496 12.3082 9.87561 12.5652 4.9379 13.7574C4.70084 13.3949 2.23772 8.33024 1.8982 7.54948Z" fill="#62788D"/>
<path d="M45.0995 8.55278C43.6114 7.91119 42.0407 7.49749 40.4302 7.3239C40.2825 7.31459 40.137 7.36263 40.0239 7.458C39.9108 7.55337 39.8388 7.68871 39.823 7.83582C39.8073 7.98293 39.8489 8.13045 39.9392 8.24763C40.0295 8.36482 40.1616 8.44263 40.3078 8.46484C41.8036 8.62543 43.2627 9.01008 44.6453 9.60578C44.7842 9.66222 44.9397 9.66198 45.0785 9.60512C45.2173 9.54826 45.3283 9.43929 45.3877 9.30158C45.4471 9.16387 45.4502 9.00836 45.3963 8.86839C45.3425 8.72842 45.2359 8.61513 45.0995 8.55278ZM42.9461 10.9876L39.8834 10.1181C39.811 10.0975 39.7352 10.0914 39.6604 10.1001C39.5855 10.1088 39.5132 10.1322 39.4474 10.1689C39.3816 10.2056 39.3237 10.2548 39.2769 10.3139C39.2302 10.373 39.1955 10.4407 39.1749 10.5131C39.1543 10.5856 39.1482 10.6614 39.1569 10.7362C39.1656 10.811 39.189 10.8834 39.2257 10.9492C39.2624 11.0149 39.3116 11.0729 39.3707 11.1196C39.4298 11.1664 39.4974 11.201 39.5699 11.2216C42.7633 12.1201 42.6417 12.1125 42.7893 12.1125C43.4523 12.1125 43.5838 11.1688 42.9461 10.9876ZM6.02226 8.88313C5.90296 7.88366 4.58461 7.73378 4.1212 8.51608C3.80079 9.05137 4.0409 9.78931 4.6152 10.047C5.48696 10.4317 6.49178 9.48419 6.02226 8.88313ZM10.4698 7.25355C10.6625 6.52402 10.0698 5.84113 9.30055 5.98413C8.34926 6.15696 8.10531 7.36213 8.84708 7.95249C9.60261 8.55508 10.8888 8.00602 10.4698 7.25355ZM13.0476 6.22502C13.16 6.31372 13.2847 6.3489 13.4223 6.3489C14.3943 6.3489 14.7644 4.99613 13.8223 4.55948C12.8297 4.0976 12.0711 5.36243 12.7517 6.06366C12.8358 6.14931 12.9383 6.2036 13.0476 6.22502Z" fill="#EC9A00"/>
</svg>
