<svg width="13" height="17" viewBox="0 0 13 17" fill="none" xmlns="http://www.w3.org/2000/svg">
<path d="M12.9726 7.96079C12.7538 9.56644 12.0972 10.9342 11.0576 12.0641C10.4557 12.6588 9.90858 13.313 9.30671 13.9076C8.43126 14.9186 7.55582 15.989 6.68037 17C4.82005 14.9186 3.01444 13.1345 1.31826 11.1721C0.333383 9.98272 -0.0496252 8.43654 0.00509018 6.83089C0.0598056 3.38172 2.522 0.408296 5.58606 0.0514851C9.03313 -0.364794 11.9878 1.77607 12.8632 5.28471C13.0821 5.99833 12.9726 7.84185 12.9726 7.96079ZM6.51622 9.38803C7.66525 9.38803 8.65013 8.37707 8.65013 7.12823C8.65013 5.8794 7.66525 4.80896 6.57094 4.80896C5.47663 4.80896 4.43704 5.8794 4.43704 7.06876C4.43704 8.3176 5.3672 9.38803 6.51622 9.38803Z" fill="#FCCB6E"/>
</svg>
