<svg width="21" height="21" viewBox="0 0 21 21" fill="none" xmlns="http://www.w3.org/2000/svg">
<path d="M16.8431 12.9938C16.1432 12.2677 15.2333 12.2677 14.5042 12.9938C13.9559 13.5397 13.4135 14.0799 12.8652 14.6259C12.7135 14.7769 12.591 14.806 12.4102 14.7188C12.0778 14.5097 11.6811 14.3587 11.3487 14.1438C9.76797 13.1448 8.43226 11.8727 7.2482 10.4265C6.67076 9.70042 6.15747 8.94534 5.79001 8.06828C5.73168 7.88822 5.73168 7.79529 5.88333 7.64427C6.46078 7.12733 6.97406 6.58715 7.52235 6.04116C8.28061 5.28608 8.28061 4.40902 7.52235 3.65393C7.06739 3.20088 6.64159 2.77687 6.2158 2.35286C5.76084 1.89981 5.33505 1.44676 4.88009 1.02275C4.18016 0.32575 3.27024 0.32575 2.54114 1.02275C1.99286 1.56874 1.45041 2.10891 0.902127 2.6549C0.383008 3.17184 0.1147 3.77591 0.0505392 4.4671C-0.0427855 5.58811 0.231356 6.67427 0.627986 7.73139C1.45041 9.93857 2.69279 11.8437 4.18016 13.6269C6.2158 16.049 8.64224 17.9541 11.4711 19.3132C12.7485 19.9173 14.0551 20.3994 15.4491 20.4923C16.4524 20.5504 17.3039 20.2832 17.998 19.5223C18.453 18.9764 19.0013 18.5233 19.4854 18.0122C20.2145 17.2571 20.2145 16.351 19.4854 15.6249C18.6047 14.7479 17.7239 13.8708 16.8431 12.9938Z" fill="#FCCB6E"/>
</svg>
