<svg width="59" height="60" viewBox="0 0 59 60" fill="none" xmlns="http://www.w3.org/2000/svg">
<path d="M29.32 -0.5C12.5745 -0.5 -1 13.0745 -1 29.82C-1 46.5655 12.5745 60.14 29.32 60.14C46.0655 60.14 59.64 46.5655 59.64 29.82C59.64 13.0745 46.0655 -0.5 29.32 -0.5ZM40.9806 33.7079C40.9806 33.7079 43.662 36.3546 44.3221 37.5832C44.341 37.6085 44.3505 37.6337 44.3568 37.6463C44.6253 38.098 44.6884 38.4486 44.5558 38.7107C44.3347 39.1466 43.5767 39.3613 43.3177 39.3803H38.5802C38.2518 39.3803 37.5632 39.295 36.7295 38.7202C36.0883 38.2717 35.4566 37.5358 34.8408 36.8189C33.9217 35.7514 33.1258 34.8291 32.3236 34.8291C32.2217 34.8289 32.1204 34.8449 32.0235 34.8765C31.4171 35.0723 30.6402 35.9377 30.6402 38.2433C30.6402 38.9634 30.0717 39.3771 29.6706 39.3771H27.5008C26.7617 39.3771 22.9117 39.1181 19.5007 35.5208C15.3254 31.1149 11.567 22.2779 11.5354 22.1958C11.2985 21.6241 11.7881 21.3178 12.3218 21.3178H17.1067C17.7447 21.3178 17.9532 21.7062 18.0984 22.0505C18.269 22.4516 18.8943 24.0466 19.9208 25.8405C21.5852 28.7651 22.6054 29.9526 23.4234 29.9526C23.5768 29.9508 23.7274 29.9118 23.8624 29.8389C24.9299 29.2452 24.7309 25.4394 24.6836 24.6498C24.6836 24.5014 24.6804 22.9475 24.134 22.2021C23.7424 21.662 23.076 21.4567 22.6717 21.3809C22.8353 21.1551 23.0509 20.9721 23.3002 20.8472C24.0329 20.4808 25.3531 20.4271 26.6638 20.4271H27.3934C28.8147 20.4461 29.181 20.5377 29.6958 20.6671C30.7381 20.9167 30.7602 21.5894 30.6686 23.8918C30.6402 24.5456 30.6118 25.2846 30.6118 26.1563C30.6118 26.3458 30.6023 26.548 30.6023 26.7627C30.5707 27.9345 30.5328 29.2641 31.3603 29.8105C31.4682 29.8782 31.5929 29.9143 31.7203 29.9147C32.0077 29.9147 32.8731 29.9148 35.2166 25.8942C35.9393 24.6001 36.5674 23.2553 37.0958 21.8705C37.1432 21.7884 37.2822 21.5357 37.4464 21.4378C37.5676 21.376 37.702 21.3446 37.838 21.3462H43.463C44.0757 21.3462 44.4958 21.4378 44.5747 21.6747C44.7137 22.0505 44.5495 23.197 41.9818 26.6743L40.8353 28.1871C38.5076 31.2381 38.5076 31.3928 40.9806 33.7079Z" fill="#446688"/>
</svg>
