<svg width="68" height="68" viewBox="0 0 68 68" fill="none" xmlns="http://www.w3.org/2000/svg">
<g filter="url(#filter0_d_328_1668)">
<rect x="16" y="14.5" width="35.0324" height="35" rx="17.5" fill="#20C863"/>
<path d="M33.1781 24.8772C29.4288 24.8772 26.3867 27.9165 26.3867 31.6623C26.3867 33.1622 26.8727 34.5437 27.6944 35.6686L26.8292 38.2263L29.5276 37.3856C30.5824 38.0566 31.8348 38.4473 33.1781 38.4473C36.9274 38.4473 39.9694 35.4081 39.9694 31.6623C39.9694 27.9165 36.9274 24.8772 33.1781 24.8772ZM36.2873 35.3015C35.0547 35.7949 33.585 35.3173 31.977 34.0976C30.3691 32.878 29.3103 31.161 29.2392 29.8861C29.1681 28.6112 30.2071 27.9678 30.7721 27.9717C31.337 27.9757 31.9573 29.7795 31.9652 30.0558C31.9731 30.336 31.2738 30.8334 31.2462 31.0702C31.2185 31.307 32.1983 32.4754 32.6131 32.7911C33.024 33.103 33.8734 33.7029 34.3119 33.6477C34.7465 33.5885 35.0349 32.7161 35.3115 32.6609C35.588 32.6056 37.0972 33.3556 37.2474 33.549C37.3975 33.7463 37.3817 34.8673 36.2873 35.3015Z" fill="white"/>
</g>
<defs>
<filter id="filter0_d_328_1668" x="0" y="0.5" width="67.0322" height="67" filterUnits="userSpaceOnUse" color-interpolation-filters="sRGB">
<feFlood flood-opacity="0" result="BackgroundImageFix"/>
<feColorMatrix in="SourceAlpha" type="matrix" values="0 0 0 0 0 0 0 0 0 0 0 0 0 0 0 0 0 0 127 0" result="hardAlpha"/>
<feOffset dy="2"/>
<feGaussianBlur stdDeviation="8"/>
<feComposite in2="hardAlpha" operator="out"/>
<feColorMatrix type="matrix" values="0 0 0 0 0.694118 0 0 0 0 0.694118 0 0 0 0 0.694118 0 0 0 1 0"/>
<feBlend mode="normal" in2="BackgroundImageFix" result="effect1_dropShadow_328_1668"/>
<feBlend mode="normal" in="SourceGraphic" in2="effect1_dropShadow_328_1668" result="shape"/>
</filter>
</defs>
</svg>
